<?xml version="1.0" standalone="no"?><!DOCTYPE svg PUBLIC "-//W3C//DTD SVG 1.1//EN" "http://www.w3.org/Graphics/SVG/1.1/DTD/svg11.dtd"><svg t="1554488893912" class="icon" style="" viewBox="0 0 1025 1024" version="1.1" xmlns="http://www.w3.org/2000/svg" p-id="13295" xmlns:xlink="http://www.w3.org/1999/xlink" width="128.125" height="128"><defs><style type="text/css"></style></defs><path d="M142.016 412.458667c-6.357333 0-12.458667-3.562667-15.397333-9.674667-4.085333-8.496-0.506667-18.693333 7.989333-22.778667L384.938667 259.68c4.661333-2.24 10.090667-2.245333 14.762667-0.010667l240.730667 115.2 240.634667-233.482667c6.773333-6.565333 17.562667-6.405333 24.133333 0.362667 6.56 6.768 6.4 17.568-0.362667 24.133333l-249.168 241.765333c-5.125333 4.976-12.805333 6.234667-19.248 3.146667L392.346667 293.989333 149.397333 410.773333C147.013333 411.92 144.496 412.458667 142.016 412.458667z" p-id="13296"></path><path d="M149.477333 817.744c-9.424 0-17.066667-7.642667-17.066667-17.066667l0-152.336c0-9.429333 7.642667-17.066667 17.066667-17.066667s17.066667 7.642667 17.066667 17.066667l0 152.336C166.544 810.106667 158.901333 817.744 149.477333 817.744z" p-id="13297"></path><path d="M399.786667 817.744c-9.424 0-17.066667-7.642667-17.066667-17.066667L382.72 520.341333c0-9.424 7.642667-17.066667 17.066667-17.066667s17.066667 7.642667 17.066667 17.066667l0 280.336C416.853333 810.106667 409.210667 817.744 399.786667 817.744z" p-id="13298"></path><path d="M650.106667 817.744c-9.429333 0-17.066667-7.642667-17.066667-17.066667l0-152.336c0-9.429333 7.642667-17.066667 17.066667-17.066667s17.066667 7.642667 17.066667 17.066667l0 152.336C667.173333 810.106667 659.530667 817.744 650.106667 817.744z" p-id="13299"></path><path d="M900.405333 817.744c-9.429333 0-17.066667-7.642667-17.066667-17.066667L883.338667 451.2c0-9.424 7.642667-17.066667 17.066667-17.066667s17.066667 7.642667 17.066667 17.066667l0 349.477333C917.472 810.106667 909.834667 817.744 900.405333 817.744z" p-id="13300"></path><path d="M17.066667 897.061333c-9.424 0-17.066667-7.648-17.066667-17.061333L0 144c0-9.424 7.642667-17.066667 17.066667-17.066667 9.424 0 17.066667 7.642667 17.066667 17.066667l0 736C34.133333 889.418667 26.490667 897.061333 17.066667 897.061333z" p-id="13301"></path><path d="M1009.061333 897.061333 17.066667 897.061333c-9.424 0-17.066667-7.648-17.066667-17.061333 0-9.429333 7.642667-17.072 17.066667-17.072l991.994667 0c9.429333 0 14.944 7.648 14.944 17.072C1024.005333 889.418667 1018.490667 897.061333 1009.061333 897.061333z" p-id="13302"></path><path d="M900.405333 161.066667l-136.533333 0c-9.429333 0-17.066667-7.642667-17.066667-17.066667s7.642667-17.066667 17.066667-17.066667l136.533333 0c9.429333 0 17.066667 7.642667 17.066667 17.066667S909.834667 161.066667 900.405333 161.066667z" p-id="13303"></path><path d="M900.405333 297.6c-9.429333 0-17.066667-7.642667-17.066667-17.066667L883.338667 144c0-9.424 7.642667-17.066667 17.066667-17.066667s17.066667 7.642667 17.066667 17.066667l0 136.533333C917.472 289.957333 909.834667 297.6 900.405333 297.6z" p-id="13304"></path></svg>