<?xml version="1.0" standalone="no"?><!DOCTYPE svg PUBLIC "-//W3C//DTD SVG 1.1//EN" "http://www.w3.org/Graphics/SVG/1.1/DTD/svg11.dtd"><svg t="1555236979395" class="icon" style="" viewBox="0 0 1024 1024" version="1.1" xmlns="http://www.w3.org/2000/svg" p-id="3589" xmlns:xlink="http://www.w3.org/1999/xlink" width="128" height="128"><defs><style type="text/css"></style></defs><path d="M604.5 141.9H1024v740.2H604.5v74L0 857.5V166.9l604.5-99v74z m0 518.1h98.7v37h-98.7v111H950V215.9H604.5v74h98.7v37h-98.7v37h98.7v37h-98.7v37h98.7v37h-98.7v37h98.7v37h-98.7v37h98.7v37h-98.7V660zM86.4 697.1h90L259 562.7l82.4 134.4h90.5l-127-199.9 115.6-188.7h-86.9l-73 124.9-74.6-125H98.3l115.1 185.8-127 202.9z m690.9-407.2h148.1v37H777.3v-37z m0 74.1h148.1v37H777.3v-37z m0 74h148.1v37H777.3v-37z m0 74h148.1v37H777.3v-37z m0 74h148.1v37H777.3v-37z m0 74h148.1v37H777.3v-37z m0 0" p-id="3590"></path></svg>