<?xml version="1.0" standalone="no"?><!DOCTYPE svg PUBLIC "-//W3C//DTD SVG 1.1//EN" "http://www.w3.org/Graphics/SVG/1.1/DTD/svg11.dtd"><svg t="1554490172926" class="icon" style="" viewBox="0 0 1024 1024" version="1.1" xmlns="http://www.w3.org/2000/svg" p-id="18978" xmlns:xlink="http://www.w3.org/1999/xlink" width="128" height="128"><defs><style type="text/css"></style></defs><path d="M537.3 682.4L489.9 694l48.7-238c2.2-10.6-1.3-21.6-9.1-29.1s-19-10.4-29.5-7.7l-92.2 23.6c-16.8 4.3-27 21.4-22.6 38.3 4.3 16.8 21.4 27 38.3 22.6l43.6-11.2L418.3 730c-2.2 10.6 1.2 21.5 9 29 6 5.7 13.8 8.8 21.8 8.8 2.5 0 5-0.3 7.5-0.9l95.7-23.5c16.9-4.1 27.2-21.2 23-38-4.1-16.9-21.2-27.2-38-23zM488.9 368c30.9 0 55.9-25 55.9-55.9 0-30.8-25-55.9-55.9-55.9s-55.9 25-55.9 55.9 25 55.9 55.9 55.9zM512 64.4C264.8 64.4 64.4 264.8 64.4 512S264.8 959.6 512 959.6 959.6 759.2 959.6 512 759.2 64.4 512 64.4z m0 831.3c-211.9 0-383.7-171.8-383.7-383.7S300.1 128.3 512 128.3 895.7 300.1 895.7 512 723.9 895.7 512 895.7z" p-id="18979"></path></svg>