<?xml version="1.0" standalone="no"?><!DOCTYPE svg PUBLIC "-//W3C//DTD SVG 1.1//EN" "http://www.w3.org/Graphics/SVG/1.1/DTD/svg11.dtd"><svg t="1554490046460" class="icon" style="" viewBox="0 0 1024 1024" version="1.1" xmlns="http://www.w3.org/2000/svg" p-id="18215" xmlns:xlink="http://www.w3.org/1999/xlink" width="128" height="128"><defs><style type="text/css"></style></defs><path d="M776.533333 34.133333H247.466667C128 34.133333 29.866667 128 29.866667 251.733333v524.8c0 119.466667 98.133333 217.6 221.866666 217.6h529.066667c119.466667 0 221.866667-98.133333 221.866667-217.6V251.733333C994.133333 128 896 34.133333 776.533333 34.133333z m132.266667 738.133334c0 72.533333-59.733333 132.266667-132.266667 132.266666H247.466667c-72.533333 0-132.266667-59.733333-132.266667-132.266666V251.733333c0-72.533333 59.733333-132.266667 132.266667-132.266666h529.066666c72.533333 0 132.266667 59.733333 132.266667 132.266666v520.533334zM388.266667 349.866667h68.266666v324.266666H388.266667v85.333334h247.466666v-85.333334h-68.266666V349.866667h68.266666v-85.333334H388.266667v85.333334z" p-id="18216"></path></svg>