<?xml version="1.0" standalone="no"?><!DOCTYPE svg PUBLIC "-//W3C//DTD SVG 1.1//EN" "http://www.w3.org/Graphics/SVG/1.1/DTD/svg11.dtd"><svg t="1555239646014" class="icon" style="" viewBox="0 0 1024 1024" version="1.1" xmlns="http://www.w3.org/2000/svg" p-id="5714" xmlns:xlink="http://www.w3.org/1999/xlink" width="128" height="128"><defs><style type="text/css"></style></defs><path d="M881.678405 308.159443l46.092224-46.092225a98.110592 98.110592 0 0 0 0-139.593593L834.92772 28.972255a99.427512 99.427512 0 0 0-139.593593 0l-46.750685 46.750685zM601.832758 121.156704L231.778042 491.211419c-65.846035 65.846035-181.076596 285.11333-116.547481 348.983984s285.11333-52.018367 348.983984-115.889021l370.713175-370.713175z" fill="" p-id="5715"></path><path d="M0 923.819867m49.384526 0l954.767504 0q49.384526 0 49.384526 49.384526l0 0q0 49.384526-49.384526 49.384526l-954.767504 0q-49.384526 0-49.384526-49.384526l0 0q0-49.384526 49.384526-49.384526Z" fill="" p-id="5716"></path></svg>