<?xml version="1.0" standalone="no"?><!DOCTYPE svg PUBLIC "-//W3C//DTD SVG 1.1//EN" "http://www.w3.org/Graphics/SVG/1.1/DTD/svg11.dtd"><svg t="1554487774238" class="icon" style="" viewBox="0 0 1024 1024" version="1.1" xmlns="http://www.w3.org/2000/svg" p-id="7384" xmlns:xlink="http://www.w3.org/1999/xlink" width="128" height="128"><defs><style type="text/css"></style></defs><path d="M104.748753 535.24792c-9.18387 0.001024-18.350333-3.600233-25.206749-10.753596-13.340112-13.918647-12.870115-36.015639 1.048532-49.355751L455.824695 115.517708c15.076743-14.456225 35.025473-22.421586 56.167113-22.421586 21.133448 0 41.082179 7.960242 56.173257 22.413395l375.241328 359.629056c13.918647 13.339088 14.38762 35.43608 1.047508 49.355751-13.339088 13.917623-35.43608 14.388644-49.355751 1.048532L519.866038 165.921991c-4.187984-4.011864-11.542043-4.020055-15.727979-0.006144L128.897754 525.542855C122.133494 532.026551 113.433956 535.246896 104.748753 535.24792z" p-id="7385" fill="#ffffff"></path><path d="M779.622424 930.911046 639.994624 930.911046c-44.911778 0-81.450659-36.537857-81.450659-81.448611L558.543965 698.195316l-93.08793 0 0 151.268143c0 44.910754-36.538881 81.448611-81.450659 81.448611L244.375528 930.91207c-44.911778 0-81.450659-36.537857-81.450659-81.448611L162.924869 546.928197c0-19.279062 15.628656-34.907718 34.907718-34.907718 19.279062 0 34.907718 15.628656 34.907718 34.907718l0 302.534238c0 6.415091 5.220133 11.633175 11.636247 11.633175l139.628824 0c6.416115 0 11.636247-5.219109 11.636247-11.633175L395.641623 663.287598c0-19.279062 15.628656-34.907718 34.907718-34.907718l162.903366 0c19.279062 0 34.907718 15.628656 34.907718 34.907718l0 186.174837c0 6.415091 5.220133 11.633175 11.635223 11.633175l139.6278 0c6.417138 0 11.637271-5.219109 11.637271-11.633175L791.260719 546.928197c0-19.279062 15.628656-34.907718 34.907718-34.907718s34.907718 15.628656 34.907718 34.907718l0 302.534238C861.075131 894.374212 824.535226 930.911046 779.622424 930.911046z" p-id="7386" fill="#ffffff"></path><path d="M861.369007 325.802636c-19.279062 0-34.907718-15.628656-34.907718-34.907718l0-127.994624L698.468712 162.900294c-19.279062 0-34.907718-15.628656-34.907718-34.907718s15.628656-34.907718 34.907718-34.907718l127.994624 0c38.495663 0 69.813388 31.318749 69.813388 69.815436l0 127.994624C896.276724 310.173981 880.648069 325.802636 861.369007 325.802636z" p-id="7387" fill="#ffffff"></path></svg>