<?xml version="1.0" standalone="no"?><!DOCTYPE svg PUBLIC "-//W3C//DTD SVG 1.1//EN" "http://www.w3.org/Graphics/SVG/1.1/DTD/svg11.dtd"><svg t="1554488680829" class="icon" style="" viewBox="0 0 1024 1024" version="1.1" xmlns="http://www.w3.org/2000/svg" p-id="11213" xmlns:xlink="http://www.w3.org/1999/xlink" width="128" height="128"><defs><style type="text/css"></style></defs><path d="M302.270607 230.346623m-38.752577 0a38.752576 38.752576 0 1 0 77.505153 0 38.752576 38.752576 0 1 0-77.505153 0Z" p-id="11214"></path><path d="M418.528336 248.947451H744.049977c7.750515 0 15.501031-7.750515 15.50103-15.501031v-15.501031c0-7.750515-7.750515-15.501031-15.50103-15.50103H418.528336c-7.750515 0-15.501031 7.750515-15.501031 15.50103v15.501031c0 7.750515 7.750515 15.501031 15.501031 15.501031z" p-id="11215"></path><path d="M302.270607 416.358989m-38.752577 0a38.752576 38.752576 0 1 0 77.505153 0 38.752576 38.752576 0 1 0-77.505153 0Z" p-id="11216"></path><path d="M418.528336 434.959817H744.049977c7.750515 0 15.501031-7.750515 15.50103-15.501031v-15.50103c0-7.750515-7.750515-15.501031-15.50103-15.501031H418.528336c-7.750515 0-15.501031 7.750515-15.501031 15.501031v15.50103c0 7.750515 7.750515 15.501031 15.501031 15.501031z" p-id="11217"></path><path d="M302.270607 602.371356m-38.752577 0a38.752576 38.752576 0 1 0 77.505153 0 38.752576 38.752576 0 1 0-77.505153 0Z" p-id="11218"></path><path d="M418.528336 620.973206H744.049977c7.750515 0 15.501031-7.750515 15.50103-15.50103v-15.501031c0-7.750515-7.750515-15.501031-15.50103-15.50103H418.528336c-7.750515 0-15.501031 7.750515-15.501031 15.50103v15.501031c0 7.750515 7.750515 15.501031 15.501031 15.50103z" p-id="11219"></path><path d="M899.061305 0.930962h-62.004122v-0.929939h-46.503092v0.929939H124.008756c-14.50664 0-26.734981 10.111681-30.072122 23.624954v975.81913c3.337141 13.513273 15.565482 23.624954 30.072122 23.624954h527.035038l279.018549-279.01855V31.933023c0.001023-17.050929-13.950109-31.002061-31.001038-31.002061z m-232.515458 942.464088V760.482481h182.91257L666.545847 943.39505z m217.014428-229.415661h-232.515458c-17.050929 0-31.002061 13.951132-31.002061 31.002061v232.515458H139.509786V47.434054h744.050489v666.545335z" p-id="11220"></path></svg>