<?xml version="1.0" standalone="no"?><!DOCTYPE svg PUBLIC "-//W3C//DTD SVG 1.1//EN" "http://www.w3.org/Graphics/SVG/1.1/DTD/svg11.dtd"><svg t="1554490022844" class="icon" style="" viewBox="0 0 1024 1024" version="1.1" xmlns="http://www.w3.org/2000/svg" p-id="17602" xmlns:xlink="http://www.w3.org/1999/xlink" width="128" height="128"><defs><style type="text/css"></style></defs><path d="M792 162H232c-38.5 0-70 31.5-70 70v560c0 38.5 31.5 70 70 70h560c38.5 0 70-31.5 70-70V232c0-38.5-31.5-70-70-70zM287.6 264.2l70.6 70.4 117.2-117.2 52.7 52.7-169.9 170L235 316.9l52.6-52.7z m-15.3 432.2l447.2-447.2 52.7 52.7L325 749.1l-52.7-52.7z m463.9 109.1l-58.7-58.9-60 60-52.5-52.7 59.8-60-56.5-56.3 52.7-52.7 56.5 56.5 55.2-55.3 52.7 52.7-55.1 55.2 58.7 58.9-52.8 52.6z" p-id="17603"></path></svg>