<?xml version="1.0" standalone="no"?><!DOCTYPE svg PUBLIC "-//W3C//DTD SVG 1.1//EN" "http://www.w3.org/Graphics/SVG/1.1/DTD/svg11.dtd"><svg t="1555239719216" class="icon" style="" viewBox="0 0 1024 1024" version="1.1" xmlns="http://www.w3.org/2000/svg" p-id="6465" xmlns:xlink="http://www.w3.org/1999/xlink" width="128" height="128"><defs><style type="text/css"></style></defs><path d="M631.755361 474.25577c0 91.639268 74.551851 166.191119 166.202541 166.191118s166.191119-74.551851 166.191118-166.191118S889.597169 308.053229 797.969324 308.053229s-166.213963 74.551851-166.213963 166.202541z m286.511204 0a120.308664 120.308664 0 1 1-120.297241-120.308664 120.445728 120.445728 0 0 1 120.297241 120.308664zM797.969324 691.54923c-91.65069 0-166.202541 74.563273-166.202541 166.202541s74.540429 166.179697 166.202541 166.179697 166.191119-74.551851 166.191118-166.179697-74.563273-166.202541-166.191118-166.202541z m0 286.499782a120.308664 120.308664 0 1 1 120.297241-120.297241 120.445728 120.445728 0 0 1-120.297241 120.297241zM563.816888 224.306611H246.134854a22.946939 22.946939 0 0 0 0 45.893878h317.682034a22.946939 22.946939 0 1 0 0-45.893878zM563.816888 400.800437H246.134854a22.946939 22.946939 0 0 0 0 45.893878h317.682034a22.946939 22.946939 0 1 0 0-45.893878zM563.816888 577.305685H246.134854a22.946939 22.946939 0 1 0 0 45.893878h317.682034a22.946939 22.946939 0 0 0 0-45.893878zM563.816888 753.799511H246.134854a22.946939 22.946939 0 1 0 0 45.893878h317.682034a22.946939 22.946939 0 0 0 0-45.893878z" p-id="6466"></path><path d="M602.22931 978.106123H127.91643a22.227348 22.227348 0 0 1-22.193082-22.193082V68.086959a22.227348 22.227348 0 0 1 22.193082-22.193082h647.208754a22.227348 22.227348 0 0 1 22.193082 22.193082v160.491506a22.946939 22.946939 0 0 0 45.893877 0V68.086959A68.166914 68.166914 0 0 0 775.125184 0H127.91643A68.166914 68.166914 0 0 0 59.82947 68.086959V955.913041a68.166914 68.166914 0 0 0 68.08696 68.086959h474.31288a22.946939 22.946939 0 0 0 0-45.893877zM847.66675 798.357007l-68.292556 73.375377-31.661979-31.696244a22.946939 22.946939 0 0 0-32.4501 32.450101l43.038359 43.026938a30.611148 30.611148 0 0 0 21.51918 8.920637h0.525416a30.542615 30.542615 0 0 0 21.701933-9.663072l79.234899-85.117266a22.946939 22.946939 0 1 0-33.580886-31.285049z" p-id="6467"></path><path d="M766.455832 410.3036a22.946939 22.946939 0 1 0-32.450101 32.438678l31.50207 31.513492-31.50207 31.490647a22.946939 22.946939 0 1 0 32.450101 32.438679l31.513492-31.490648 31.502069 31.50207a22.949223 22.949223 0 0 0 32.461523-32.450101l-31.502069-31.502069 31.502069-31.50207a22.937801 22.937801 0 0 0-32.438679-32.438678l-31.524913 31.479225z" p-id="6468"></path></svg>