<?xml version="1.0" standalone="no"?><!DOCTYPE svg PUBLIC "-//W3C//DTD SVG 1.1//EN" "http://www.w3.org/Graphics/SVG/1.1/DTD/svg11.dtd"><svg t="1555237138369" class="icon" style="" viewBox="0 0 1024 1024" version="1.1" xmlns="http://www.w3.org/2000/svg" p-id="4691" xmlns:xlink="http://www.w3.org/1999/xlink" width="128" height="128"><defs><style type="text/css"></style></defs><path d="M192 768H64c-35.2 0-64 28.8-64 64v128c0 35.2 28.8 64 64 64h128c35.2 0 64-28.8 64-64V832c0-35.2-28.8-64-64-64z m0 192H64V832h128v128z m192-144h640v160H384z m0-768h640v160H384zM192 0H64C28.8 0 0 28.8 0 64v128c0 35.2 28.8 64 64 64h128c35.2 0 64-28.8 64-64V64c0-35.2-28.8-64-64-64z m-57.6 172.8L99.2 208l-32-35.2L32 137.6l35.2-35.2 35.2 35.2L192 48l32 35.2-89.6 89.6zM384 432h640v160H384z m-192-48H64c-35.2 0-64 28.8-64 64v128c0 35.2 28.8 64 64 64h128c35.2 0 64-28.8 64-64V448c0-35.2-28.8-64-64-64z m-57.6 172.8L99.2 592 64 556.8l-32-35.2 35.2-35.2 35.2 35.2L192 432l32 35.2-89.6 89.6z" p-id="4692"></path></svg>