<?xml version="1.0" standalone="no"?><!DOCTYPE svg PUBLIC "-//W3C//DTD SVG 1.1//EN" "http://www.w3.org/Graphics/SVG/1.1/DTD/svg11.dtd"><svg t="1554490000535" class="icon" style="" viewBox="0 0 1024 1024" version="1.1" xmlns="http://www.w3.org/2000/svg" p-id="17329" xmlns:xlink="http://www.w3.org/1999/xlink" width="128" height="128"><defs><style type="text/css"></style></defs><path d="M793.68 324.984c-11.784-11.712-30.896-11.712-42.688 0L430.856 643.168 238.768 452.256c-11.784-11.712-30.896-11.712-42.688 0l-42.688 42.424c-11.784 11.712-11.784 30.712 0 42.424l256.112 254.544c11.784 11.712 30.896 11.712 42.688 0l384.176-381.824c11.784-11.712 11.784-30.712 0-42.424L793.68 324.984zM947.632 32.272 102.496 32.272c-33.336 0-60.368 26.864-60.368 60L42.128 932.24c0 33.136 27.024 60 60.368 60l845.136 0c33.344 0 60.368-26.864 60.368-60L1008 92.272C1008 59.136 980.976 32.272 947.632 32.272zM947.632 872.24c0 33.136-27.024 60-60.368 60L162.864 932.24c-33.336 0-60.368-26.864-60.368-60L102.496 152.272c0-33.136 27.024-60 60.368-60l724.408 0c33.336 0 60.368 26.864 60.368 60L947.64 872.24z" p-id="17330"></path></svg>