<?xml version="1.0" standalone="no"?><!DOCTYPE svg PUBLIC "-//W3C//DTD SVG 1.1//EN" "http://www.w3.org/Graphics/SVG/1.1/DTD/svg11.dtd"><svg t="1554489396654" class="icon" style="" viewBox="0 0 1187 1024" version="1.1" xmlns="http://www.w3.org/2000/svg" p-id="14034" xmlns:xlink="http://www.w3.org/1999/xlink" width="148.375" height="128"><defs><style type="text/css"></style></defs><path d="M673.792 1021.952c-16.384 0-32.768-4.096-45.056-12.288l-313.344-196.608H155.648c-79.872 0-145.408-65.536-145.408-145.408V374.784c0-79.872 65.536-145.408 145.408-145.408h139.264L626.688 22.528c14.336-8.192 30.72-12.288 47.104-12.288 51.2 0 92.16 40.96 92.16 92.16v827.392c0 24.576-10.24 49.152-28.672 65.536-18.432 16.384-40.96 26.624-63.488 26.624zM155.648 307.2c-36.864 0-67.584 30.72-67.584 67.584v292.864c0 36.864 30.72 67.584 67.584 67.584h180.224L667.648 942.08c4.096 2.048 12.288 2.048 16.384-2.048 2.048-2.048 4.096-4.096 4.096-10.24V100.352c0-6.144-4.096-10.24-6.144-12.288-4.096-2.048-10.24-2.048-14.336 0L315.392 307.2H155.648z m706.56 530.432c-10.24 0-20.48-4.096-26.624-12.288-14.336-14.336-14.336-38.912 0-55.296 67.584-67.584 106.496-159.744 106.496-256s-36.864-186.368-106.496-256c-8.192-8.192-12.288-16.384-12.288-26.624s4.096-20.48 12.288-26.624c14.336-14.336 38.912-14.336 55.296 0 81.92 81.92 129.024 192.512 129.024 309.248s-45.056 227.328-129.024 309.248c-8.192 10.24-18.432 14.336-28.672 14.336z" p-id="14035"></path><path d="M978.944 946.176c-10.24 0-20.48-4.096-26.624-10.24-14.336-14.336-16.384-38.912 0-55.296 96.256-98.304 149.504-227.328 149.504-364.544 0-141.312-55.296-272.384-155.648-372.736-8.192-8.192-12.288-16.384-12.288-26.624s4.096-20.48 10.24-26.624c8.192-8.192 16.384-12.288 26.624-12.288s20.48 4.096 26.624 10.24c116.736 112.64 180.224 266.24 180.224 428.032 0 157.696-61.44 307.2-169.984 417.792-8.192 8.192-16.384 12.288-28.672 12.288z" p-id="14036"></path></svg>