<?xml version="1.0" standalone="no"?><!DOCTYPE svg PUBLIC "-//W3C//DTD SVG 1.1//EN" "http://www.w3.org/Graphics/SVG/1.1/DTD/svg11.dtd"><svg t="1554489928598" class="icon" style="" viewBox="0 0 1024 1024" version="1.1" xmlns="http://www.w3.org/2000/svg" p-id="16120" xmlns:xlink="http://www.w3.org/1999/xlink" width="128" height="128"><defs><style type="text/css"></style></defs><path d="M376.550075 241.201457l-83.512019 0c-9.967002 0-18.046005 7.28594-18.046005 16.272615l0 307.971164 0 11.349489L274.992051 720.083176l59.802014-59.802014 59.802014 59.802014L394.59608 576.794725l0-11.349489L394.59608 257.475096C394.595057 248.487398 386.516054 241.201457 376.550075 241.201457z" p-id="16121"></path><path d="M917.89031 302.459636c-0.124843 0-0.239454-0.074701-0.36532-0.077771-3.505847-2.931772-7.769964-4.920056-12.496615-5.65172-11.31879-10.450003-19.244296-34.180474-19.244296-61.867046 0-27.65792 7.91118-51.360761 19.209504-61.827137 4.77884-0.734734 9.092076-2.738367 12.622482-5.710049 0.094144-0.002047 0.181125-0.058328 0.274246-0.058328l-0.208754 0c5.523807-4.682649 9.102309-11.574616 9.102309-19.396769 0-13.963013-11.159154-25.267477-25.036209-25.616424 0.216941-0.005117 0.420579-0.065492 0.639566-0.065492-0.288572 0-0.565888 0.040932-0.854461 0.042979-0.146333-0.00307-0.281409-0.042979-0.427742-0.042979-0.441045 0-0.851391 0.107447-1.285273 0.128937-2.980891 0.067538-5.906523 0.343831-8.826016 0.638543-3.535523-0.49835-7.117095-0.847298-10.79281-0.847298L174.257789 122.109082c-42.549072 0-77.042677 34.492582-77.042677 77.041654l0 71.424726c0 42.549072 34.492582 77.041654 77.042677 77.041654l54.942333 0L229.200122 218.824821c0-15.868409 14.268982-28.733415 31.862685-28.733415l147.459446 0c17.600867 0 31.865755 12.863982 31.865755 28.733415l0 128.792295L880.20092 347.617116c3.700275 0 7.308453-0.350994 10.865465-0.854461-1.054005-0.149403-2.0241-0.531096-3.062755-0.721431 2.360767 0.301875 4.709255 0.647753 7.114025 0.802272 1.926886 0.462534 3.914146 0.773619 5.988388 0.773619 14.182001 0 25.678846-11.496845 25.678846-25.679869 0-7.854898-3.606131-14.782681-9.168824-19.47761L917.89031 302.459636z" p-id="16122"></path><path d="M97.215112 472.810443l0 71.424726c0 42.549072 34.492582 77.041654 77.042677 77.041654l54.942333 0L229.200122 395.768789l-54.942333 0C131.707694 395.768789 97.215112 430.261371 97.215112 472.810443z" p-id="16123"></path><path d="M917.89031 576.11832c-0.104377 0-0.198521-0.062422-0.301875-0.064468-3.526313-2.968611-7.827269-4.979408-12.598946-5.710049-11.296277-10.469446-19.204387-34.169217-19.204387-61.820997 0-27.692712 7.928576-51.427276 19.25146-61.873186 4.731768-0.735757 9.009188-2.714831 12.518105-5.650697 0.11461-0.00307 0.222057-0.071631 0.336668-0.071631l-0.25378 0c5.550413-4.683672 9.147334-11.593036 9.147334-19.436678 0-13.963013-11.159154-25.267477-25.036209-25.615401 0.216941-0.005117 0.420579-0.065492 0.639566-0.065492-0.288572 0-0.565888 0.040932-0.854461 0.042979-0.146333-0.00307-0.281409-0.042979-0.427742-0.042979-0.441045 0-0.851391 0.107447-1.285273 0.128937-3.070942 0.069585-6.086625 0.347924-9.092076 0.657986-3.449565-0.478907-6.942109-0.826831-10.526751-0.826831L440.388009 395.769812l0 225.50701L880.20092 621.276822c3.700275 0 7.308453-0.350994 10.865465-0.854461-1.165546-0.164752-2.238994-0.582261-3.38919-0.798179 2.467191 0.323365 4.926196 0.677429 7.440459 0.839111 1.926886 0.462534 3.914146 0.773619 5.988388 0.773619 14.182001 0 25.678846-11.496845 25.678846-25.679869 0-7.833409-3.586688-14.743796-9.119705-19.437701L917.89031 576.119343z" p-id="16124"></path><path d="M917.89031 849.77598c-0.104377 0-0.198521-0.062422-0.301875-0.064468-3.526313-2.968611-7.827269-4.979408-12.598946-5.710049-11.296277-10.469446-19.204387-34.169217-19.204387-61.820997 0-27.692712 7.928576-51.427276 19.25146-61.873186 4.731768-0.735757 9.009188-2.714831 12.518105-5.650697 0.11461-0.00307 0.222057-0.071631 0.336668-0.071631l-0.25378 0c5.550413-4.683672 9.147334-11.593036 9.147334-19.436678 0-13.963013-11.159154-25.267477-25.036209-25.616424 0.216941-0.005117 0.420579-0.065492 0.639566-0.065492-0.288572 0-0.565888 0.040932-0.854461 0.042979-0.146333-0.00307-0.281409-0.042979-0.427742-0.042979-0.441045 0-0.851391 0.107447-1.285273 0.128937-3.070942 0.069585-6.086625 0.347924-9.092076 0.657986-3.449565-0.478907-6.942109-0.826831-10.526751-0.826831L440.388009 669.426449l0 2.204202 0 20.039405 0 147.413398L334.794066 733.490533 229.200122 839.084477 229.200122 691.671079l0-20.039405 0-2.204202-54.942333 0c-42.549072 0-77.042677 34.492582-77.042677 77.041654l0 71.424726c0 42.549072 34.492582 77.041654 77.042677 77.041654L880.20092 894.935506c3.700275 0 7.308453-0.350994 10.865465-0.854461-1.165546-0.164752-2.238994-0.582261-3.38919-0.798179 2.467191 0.323365 4.926196 0.677429 7.440459 0.839111 1.926886 0.462534 3.914146 0.773619 5.988388 0.773619 14.182001 0 25.678846-11.496845 25.678846-25.679869 0-7.833409-3.586688-14.743796-9.119705-19.437701L917.89031 849.778026z" p-id="16125"></path></svg>