<?xml version="1.0" standalone="no"?><!DOCTYPE svg PUBLIC "-//W3C//DTD SVG 1.1//EN" "http://www.w3.org/Graphics/SVG/1.1/DTD/svg11.dtd"><svg t="1554488740165" class="icon" style="" viewBox="0 0 1025 1024" version="1.1" xmlns="http://www.w3.org/2000/svg" p-id="12558" xmlns:xlink="http://www.w3.org/1999/xlink" width="128.125" height="128"><defs><style type="text/css"></style></defs><path d="M848.21572 76.792839h-53.84951a26.767217 26.767217 0 1 0 0 53.534434h53.84951c68.113902 0 123.510154 62.012867 123.510154 138.232839v563.672615c0 76.219972-55.396252 138.204196-123.510154 138.204196H177.044587c-68.085259 0-123.48151-62.012867-123.48151-138.204196V268.560112c0-76.219972 55.396252-138.232839 123.48151-138.232839h53.849511a26.767217 26.767217 0 1 0 0-53.534434h-53.849511C79.428028 76.792839 0 162.722909 0 268.560112v563.672615c0 105.722629 79.428028 191.738629 177.044587 191.73863h671.171133c97.616559 0 177.044587-85.93007 177.044588-191.73863V268.560112c0-105.751273-79.428028-191.767273-177.044588-191.767273z" p-id="12559"></path><path d="M203.654266 786.059636a20.451357 20.451357 0 0 0 20.451356 20.451357H846.984056a20.451357 20.451357 0 0 0 0-40.87407H224.076979a20.451357 20.451357 0 0 0-20.422713 20.422713zM302.273343 658.482126l54.937958-314.418126-16.641791-8.306573-106.639216 49.381146v5.470882a19.477483 19.477483 0 0 0 6.072391 14.694042c5.728671 5.384951 15.123692 7.475916 28.471497 6.559328l31.708196-12.746294-46.201735 259.394238zM600.880336 506.471832a286.748643 286.748643 0 0 0 5.728671-56.341482c-2.606545-69.918434-31.507692-108.071385-86.846657-113.399049-74.472727 2.577902-120.015664 58.776168-135.110714 166.933482a320.948811 320.948811 0 0 0-3.723636 44.71228c0 72.668196 28.299636 111.537231 84.870266 115.547301 70.777734-1.260308 116.177455-54.221874 135.08207-157.452532z m-170.284756 50.985175a225.337287 225.337287 0 0 1 3.523133-40.329846c14.894545-89.453203 42.793175-136.485594 81.891357-139.693651 9.624168 0.372364 38.926322 1.518098 38.926322 67.598322a272.856615 272.856615 0 0 1-5.299021 49.180644v0.200503c-13.720168 83.352168-40.301203 126.689566-77.938574 128.895105-9.824671-0.802014-39.527832-3.093483-41.103217-65.851077zM762.629371 336.731301c-74.472727 2.577902-120.015664 58.776168-135.110714 166.933482a321.092028 321.092028 0 0 0-3.723636 44.71228c0 72.668196 28.299636 111.537231 84.870266 115.547301 70.806378-1.260308 116.292028-54.221874 135.168-157.538462a287.32151 287.32151 0 0 0 5.728671-56.341482c-2.721119-69.832503-31.536336-107.985455-86.932587-113.313119z m29.960951 157.538461v0.200504c-13.691524 83.352168-40.272559 126.689566-77.938574 128.895105-9.767385-0.744727-39.441902-3.007552-41.04593-65.879721a223.819189 223.819189 0 0 1 3.523133-40.329846c14.894545-89.453203 42.793175-136.485594 81.862713-139.69365 9.624168 0.372364 38.926322 1.518098 38.926322 67.598322a270.221427 270.221427 0 0 1-5.327664 49.123356zM378.035021 178.104392h268.302322a88.049678 88.049678 0 0 0 87.877818-87.963749v-2.176895A88.049678 88.049678 0 0 0 646.251413 0h-268.216392a88.078322 88.078322 0 0 0-87.963748 87.963748v2.176895a88.078322 88.078322 0 0 0 87.963748 87.963749z m-34.372028-90.140644a34.372028 34.372028 0 0 1 34.372028-34.372028h268.302322a34.372028 34.372028 0 0 1 34.372028 34.372028v2.176895a34.372028 34.372028 0 0 1-34.372028 34.372028h-268.302322a34.372028 34.372028 0 0 1-34.372028-34.372028z" p-id="12560"></path></svg>