<?xml version="1.0" standalone="no"?><!DOCTYPE svg PUBLIC "-//W3C//DTD SVG 1.1//EN" "http://www.w3.org/Graphics/SVG/1.1/DTD/svg11.dtd"><svg t="1555237043834" class="icon" style="" viewBox="0 0 1024 1024" version="1.1" xmlns="http://www.w3.org/2000/svg" p-id="4145" xmlns:xlink="http://www.w3.org/1999/xlink" width="128" height="128"><defs><style type="text/css"></style></defs><path d="M358.4 256h460.8a51.2 51.2 0 0 1 0 102.4H358.4a51.2 51.2 0 1 1 0-102.4zM204.8 358.4a51.2 51.2 0 1 1 0-102.4 51.2 51.2 0 0 1 0 102.4z m153.6 102.4h460.8a51.2 51.2 0 0 1 0 102.4H358.4a51.2 51.2 0 0 1 0-102.4z m0 204.8h460.8a51.2 51.2 0 0 1 0 102.4H358.4a51.2 51.2 0 0 1 0-102.4z" p-id="4146"></path><path d="M204.8 51.2A153.6 153.6 0 0 0 51.2 204.8v614.4a153.6 153.6 0 0 0 153.6 153.6h614.4a153.6 153.6 0 0 0 153.6-153.6V204.8A153.6 153.6 0 0 0 819.2 51.2H204.8z m0-51.2h614.4A204.8 204.8 0 0 1 1024 204.8v614.4A204.8 204.8 0 0 1 819.2 1024H204.8A204.8 204.8 0 0 1 0 819.2V204.8A204.8 204.8 0 0 1 204.8 0z" p-id="4147"></path></svg>