<?xml version="1.0" standalone="no"?><!DOCTYPE svg PUBLIC "-//W3C//DTD SVG 1.1//EN" "http://www.w3.org/Graphics/SVG/1.1/DTD/svg11.dtd"><svg t="1554489974778" class="icon" style="" viewBox="0 0 1024 1024" version="1.1" xmlns="http://www.w3.org/2000/svg" p-id="16795" xmlns:xlink="http://www.w3.org/1999/xlink" width="128" height="128"><defs><style type="text/css"></style></defs><path d="M509.064 323.984c-100.016 0-181.104 80.584-181.104 179.992 0 99.408 81.08 179.992 181.104 179.992 100.016 0 181.104-80.584 181.104-179.992C690.168 404.576 609.088 323.984 509.064 323.984zM509.064 24C242.344 24 26.128 238.896 26.128 503.984c0 265.088 216.216 479.976 482.936 479.976S992 769.064 992 503.984C992 238.896 775.784 24 509.064 24zM509.064 923.96c-233.376 0-422.568-188.032-422.568-419.984s189.192-419.984 422.568-419.984c233.376 0 422.568 188.032 422.568 419.984S742.44 923.96 509.064 923.96z" p-id="16796"></path></svg>