<?xml version="1.0" standalone="no"?><!DOCTYPE svg PUBLIC "-//W3C//DTD SVG 1.1//EN" "http://www.w3.org/Graphics/SVG/1.1/DTD/svg11.dtd"><svg t="1555411609737" class="icon" style="" viewBox="0 0 1024 1024" version="1.1" xmlns="http://www.w3.org/2000/svg" p-id="2564" xmlns:xlink="http://www.w3.org/1999/xlink" width="128" height="128"><defs><style type="text/css"></style></defs><path d="M387.84 429.312c0 11.392 9.344 20.672 20.544 20.672h398.464a20.736 20.736 0 0 0 20.672-20.672 21.12 21.12 0 0 0-20.672-21.376H408.384a21.12 21.12 0 0 0-20.544 21.376zM642.688 555.584H408.384a20.928 20.928 0 0 0-20.544 21.184c0 11.52 9.344 20.608 32.512 20.608h234.368c-0.896 0 8.256-9.152 8.256-20.608a20.8 20.8 0 0 0-20.288-21.184z" p-id="2565"></path><path d="M772.736 723.904a20.864 20.864 0 0 0-20.608-21.056h-292.48c6.592 13.248 11.968 27.328 15.872 41.792h276.672a20.544 20.544 0 0 0 20.544-20.736z" p-id="2566"></path><path d="M959.04 319.104L732.8 73.536c-5.952-5.888-6.464-9.6-15.36-9.6H325.12c-23.936 0-45.696 9.856-61.312 25.984-15.616 16-10.176 29.696-10.176 54.08l1.984 421.824c5.696-0.384-5.824 0 0 0 10.432 0 20.864 0.64 30.976 2.048V157.952c0-26.304 21.248-48.256 47.424-48.256h360.96v158.848c0 21.312 8.064 40.704 22.592 56.32 14.208 14.592 33.92 23.168 55.04 23.168h156.288v480.96c0 26.112-28.48 59.008-54.848 59.008H505.024c10.368 11.008 6.528 15.168 6.528 32.384v2.56h378.432c23.232 0 44.736-9.536 61.312-26.048 16.064-16.064 7.872-41.216 7.872-65.344V326.016c-0.128-8.704 6.208 0-0.128-6.912z m-186.304-1.984c-9.984 0-36.672-13.12-36.672-13.12-5.824-6.72-10.048-26.048-10.048-36.032l2.112-140.8 175.872 189.952h-131.264z" p-id="2567"></path><path d="M455.488 905.856s-1.792 1.728-3.584 1.728h-5.376c-1.792 0-5.376 1.792-5.376 3.584l-3.648 7.232c-1.792 1.792 0 5.44 1.792 7.168l3.648 3.584s1.728 1.856 1.728 3.648 0 1.792-1.728 3.584l-7.232 7.168s-1.728 1.728-3.584 1.728-1.792 0-3.584-1.728l-3.584-3.584c-1.728-1.792-5.312-1.792-7.168-1.792l-7.168 3.584c-1.792 0-3.648 3.584-3.648 5.376v5.376c0 1.792 0 1.792-1.728 3.648 0 0-1.792 1.792-3.648 1.792h-10.752c-1.792 0-1.792 0-3.584-1.792 0 0-1.792-1.792-1.792-3.648v-5.376c0-1.792-1.792-5.376-3.648-5.376l-7.104-3.584c-1.792-1.792-5.44 0-7.168 1.792l-3.648 3.584s-1.792 1.728-3.584 1.728c-1.728 0-1.728 0-3.584-1.728l-7.168-7.232s-1.728-1.728-1.728-3.584c0-1.728 0-1.728 1.728-3.648l3.648-3.584c1.792-1.728 1.792-5.376 1.792-7.168l-3.584-7.168c0-1.728-3.584-3.584-5.376-3.584h-5.44c-1.792 0-1.792 0-3.584-1.728 0 0-1.792-1.856-1.792-3.648v-10.816c0-1.792 0-1.792 1.792-3.584 0 0 1.792-1.792 3.584-1.792h5.376c1.792 0 5.376-1.728 5.376-3.584l3.584-7.104c1.792-1.856 0-5.44-1.792-7.168l-3.648-3.648s-1.728-1.792-1.728-3.648 0-1.792 1.728-3.584l7.232-7.104s1.792-1.792 3.584-1.792 1.792 0 3.584 1.792l3.648 3.584c1.728 1.728 5.376 1.728 7.168 1.728l7.104-3.584c1.792 0 3.648-3.584 3.648-5.376v-5.376c0-1.792 0-1.792 1.792-3.648 0 0 1.728-1.792 3.584-1.792h10.752c1.792 0 1.792 0 3.648 1.792 0 0 1.728 1.792 1.728 3.648v5.376c0 1.792 1.792 5.376 3.648 5.376l7.168 3.584c1.792 1.792 5.376 0 7.168-1.728l3.648-3.584s1.728-1.792 3.584-1.792 1.792 0 3.584 1.792l7.232 7.104s1.728 1.728 1.728 3.584 0 1.792-1.728 3.648l-3.648 3.648c-1.792 1.728-1.792 5.312-1.792 7.168l3.648 7.104c0 1.792 3.584 3.584 5.376 3.584h5.376c1.728 0 1.728 0 3.584 1.792 0 0 1.792 1.728 1.792 3.584v10.816c-0.064 1.792-0.064 3.648-1.856 3.648z m-57.472-30.464c-12.544 0-23.232 10.688-23.232 23.232s10.688 23.296 23.232 23.296a23.68 23.68 0 0 0 23.36-23.296 22.528 22.528 0 0 0-23.36-23.232z m-60.992-80.768c12.544 5.248 25.152 12.48 35.968 19.712 5.312 3.584 7.168 10.816 1.792 16.192-3.648 5.312-10.816 7.104-16.128 1.728a132.672 132.672 0 0 0-80.768-26.88c-34.112 0-66.432 12.48-91.52 35.904a138.88 138.88 0 0 0-44.864 87.872c0 5.44-5.376 10.816-12.544 10.816h-1.792c-7.168 0-10.752-7.168-10.752-12.544a170.688 170.688 0 0 1 52.032-102.272c14.4-12.544 30.528-23.36 46.656-30.528-7.168-5.44-14.336-10.816-19.776-16.192a115.264 115.264 0 0 1-34.112-82.56c0-30.464 12.544-59.2 34.112-82.496 21.504-21.568 50.24-34.112 80.768-34.112s59.2 12.544 80.768 34.112c21.504 21.504 32.256 50.24 32.256 82.496 0 30.592-12.48 59.2-32.256 82.56a178.688 178.688 0 0 0-19.84 16.192z m1.792-163.328a84.224 84.224 0 0 0-62.784-26.88c-23.36 0-46.656 8.96-62.784 26.88-16.192 17.92-26.88 39.488-26.88 64.576 0 25.152 8.96 46.656 26.88 64.64 10.752 10.752 25.152 19.712 39.424 23.296 7.232 1.792 12.544 3.648 19.776 3.648 8.96 0 19.712 0 28.672-3.648 14.4-3.648 28.736-12.544 39.424-23.296 16.192-17.984 26.944-39.488 26.944-64.64a100.992 100.992 0 0 0-28.672-64.576z" p-id="2568"></path></svg>