<?xml version="1.0" standalone="no"?><!DOCTYPE svg PUBLIC "-//W3C//DTD SVG 1.1//EN" "http://www.w3.org/Graphics/SVG/1.1/DTD/svg11.dtd"><svg t="1554488333224" class="icon" style="" viewBox="0 0 1024 1024" version="1.1" xmlns="http://www.w3.org/2000/svg" p-id="9884" xmlns:xlink="http://www.w3.org/1999/xlink" width="128" height="128"><defs><style type="text/css"></style></defs><path d="M63.673315 1024c-2.478697 0-4.935063-0.437042-7.300511-1.29996-5.354559-1.952333-9.627679-5.871353-12.033004-11.037697-2.40692-5.166344-2.657341-10.961135-0.703414-16.315694 36.134102-99.146272 98.666164-183.854216 180.837989-244.963499 37.138979-27.618168 77.447308-49.696752 119.806863-65.620065l36.757764-13.816262-33.527802-20.44207c-21.550625-13.136773-41.597124-28.919723-59.584423-46.903832C228.074388 543.745341 195.112826 464.168651 195.112826 379.527699c0-1.10377 0.017545-2.209134 0.035091-3.314499l0.154719-9.49529-7.43928-5.866568c-15.460751-12.195698-23.298792-25.957728-23.298792-40.90328l0-132.686834-81.135047-23.086651 0 266.585901c0 11.766632-9.573448 21.340079-21.340079 21.340079-11.766632 0-21.340079-9.573448-21.340079-21.340079l0-263.639857 0.601331-14.565932-14.286799-4.410294-17.874051-5.086592 502.81335-143.057803 502.80697 143.056208-155.368344 44.206614 0 132.686834c0 14.945552-7.839636 28.707582-23.298792 40.90328l-7.385049 5.825097 0.113248 10.642126c0.011165 0.797521 0.022331 1.50253 0.022331 2.207539 0 84.639357-32.961562 164.216047-92.812357 224.070032-18.138828 18.135638-38.359187 34.02386-60.096432 47.221245l-33.559703 20.373483 36.721078 13.891229c42.040546 15.899388 82.052197 37.866319 118.926399 65.294676 82.178206 61.114069 144.713458 145.822013 180.845965 244.963499 4.025888 11.056837-1.690745 23.327502-12.744393 27.356581-2.367044 0.859728-4.825005 1.29677-7.303701 1.29677-8.930645 0-16.985612-5.643262-20.046499-14.042758-33.272595-91.287496-90.751561-169.205342-166.216231-225.333306-76.94168-57.228544-167.310431-87.478533-261.333425-87.478533-94.021399 0-184.39015 30.249989-261.333425 87.478533-75.469455 56.131155-132.945231 134.050596-166.208256 225.333306C80.670092 1018.356738 72.608746 1024 63.673315 1024zM240.115366 415.23752c17.771968 135.967837 134.658307 238.500386 271.887824 238.500386 137.232706 0 254.117451-102.532548 271.886229-238.501981l3.727615-28.511392-27.744176 7.565289c-50.191215 13.690253-117.538712 22.990948-189.639436 26.185819l-0.612496 0.038281c-19.382961 1.692341-38.745187 2.545688-57.61933 2.545688-18.885308 0-38.207658-0.851753-57.42633-2.529738l-0.596546-0.041471c-72.268204-3.206036-139.661957-12.508326-189.848387-26.19858l-27.744176-7.566884L240.115366 415.23752zM207.238342 311.108334l16.020611 2.646176c2.113432 0.349314 4.145517 1.004877 6.042023 1.947547C293.853957 347.75923 379.84272 371.061211 459.320518 378.033144l0.38919 0.033496 0.531149 0.023926c16.91862 0.655563 34.333299 0.987332 51.760737 0.987332 17.424249 0 34.835737-0.331769 51.747977-0.985737l0.577406-0.030306 0.342934-0.027116c79.463443-6.971933 165.452206-30.272319 230.021137-62.331087 1.896506-0.944265 3.933376-1.599828 6.051593-1.950737l16.017421-2.650961 0-97.144493L517.76927 297.831196c-1.877366 0.526364-3.818533 0.794331-5.76608 0.794331s-3.888715-0.266372-5.764485-0.794331l-299.000363-83.872141L207.238342 311.108334zM165.146755 143.056208l346.856435 98.685305 346.859625-98.685305L512.00319 44.367713 165.146755 143.056208z" p-id="9885"></path></svg>